<svg xmlns="http://www.w3.org/2000/svg" xmlns:xlink="http://www.w3.org/1999/xlink" width="135.111" height="131.308" viewBox="0 0 135.111 131.308"><defs><linearGradient id="a" x1="0.5" x2="0.5" y2="1" gradientUnits="objectBoundingBox"><stop offset="0" stop-color="#ff6b5b"/><stop offset="1" stop-color="#fc2f7a"/></linearGradient></defs><g transform="translate(-125.858 -84.772)"><path d="M381.072,97.081l12.1,2.495a.19.19,0,0,1,.009.371l-12.023,2.875a.19.19,0,0,0-.141.15l-2.495,12.1a.19.19,0,0,1-.371.009l-2.875-12.023a.19.19,0,0,0-.15-.141l-12.1-2.495a.19.19,0,0,1-.009-.371l12.023-2.875a.19.19,0,0,0,.141-.15l2.495-12.1a.19.19,0,0,1,.371-.009l2.875,12.023a.19.19,0,0,0,.15.141Z" transform="translate(-132.36)" opacity="0.4" fill="url(#a)"/><path d="M248.659,174.722l-6.65-.057-28.485-.322-5.285-.1-31.558-.393a.269.269,0,0,0-.265.327l12.531,58.872,2.857,13.728a5.618,5.618,0,0,1-.865,1.391,1.9,1.9,0,0,1-1.373.7,3.627,3.627,0,0,1-3.215-1.466q-12.836-16.1-25.659-32.136c-2.552-3.2,1.735-6.778,4.363-3.5q8.005,9.988,15.825,19.711,1.179,1.462,2.283,3.086a.145.145,0,0,0,.143.06.134.134,0,0,0,.109-.1.724.724,0,0,0,0-.318q-6.407-30.083-12.832-60.175a.267.267,0,0,0-.283-.234q-17.048-.252-32.11-.411-1.881-.018-3.524-.146-.358-.026-.137.252,7.069,8.831,14.161,17.777c.812,1.02,1.753,2.049,1.506,3.453-.437,2.495-3.528,2.936-5.065,1.02q-9.361-11.675-18.616-23.31a2.758,2.758,0,0,1,.062-3.647q10.213-12.213,20.4-24.294a2.674,2.674,0,0,1,2.009-.976q40.345-.009,79.987-.013a3.025,3.025,0,0,1,2.543,1.267q9.635,12.717,19.137,25.173A2.843,2.843,0,0,1,248.659,174.722Zm-62.171-25.363a.146.146,0,0,0-.11-.243l-30.264,0a.146.146,0,0,0-.106.247l15.649,16.752a.146.146,0,0,0,.216,0Zm37.236-.221-25.464.018-1.841.035a3.125,3.125,0,0,0-3.263,1.046q-7.665,8.871-14.894,17.132a1.3,1.3,0,0,1-.358.287,1.026,1.026,0,0,0-.313.256q-.234.291.141.3l31.492.384a44.681,44.681,0,0,0,7.52.035l25.8.318q.225,0,.088-.177l-13.675-18.046a3.215,3.215,0,0,0-.87-1.117,2.178,2.178,0,0,0-1.267-.486A14.16,14.16,0,0,0,223.725,149.139Zm-88.681,18.276a.137.137,0,0,0,.1.225l30.273.419a.137.137,0,0,0,.106-.23l-16.112-17.3a.137.137,0,0,0-.208,0Z" transform="translate(0 -32.797)" fill="url(#a)"/><path d="M334.4,157.738l-12.218,17.9a44.682,44.682,0,0,1-7.52-.035,12.006,12.006,0,0,0,3.687-3.541l2.252-3.29q4.23-6.182,8.562-12.624a14.158,14.158,0,0,1,3.1-.018,2.177,2.177,0,0,1,1.267.486A3.215,3.215,0,0,1,334.4,157.738Z" transform="translate(-105.436 -39.811)" opacity="0.4" fill="url(#a)"/><path d="M282.134,156.345l1.841-.035,2.875,3.886a.37.37,0,0,1-.079.574l-3.338,2.627q-.234.185-.455-.093l-3.555-4.429a.34.34,0,0,1,.057-.486Z" transform="translate(-85.715 -39.95)" opacity="0.4" fill="url(#a)"/><rect width="5.184" height="6.314" rx="1.15" transform="matrix(0.792, -0.61, 0.61, 0.792, 198.29, 124.805)" opacity="0.4" fill="url(#a)"/><rect width="5.149" height="6.305" rx="1.53" transform="translate(203.012 130.892) rotate(-38.5)" opacity="0.4" fill="url(#a)"/><path d="M288.031,213.12l5.285.1q-4.076,12.982-8.3,25.924-4.239,13-8.482,25.994c-.649,2-1.117,4.027-1.912,5.983-.539,1.329-.843,2.729-1.351,4.062q-.693,1.832.508.283L321.8,213.544l6.65.057q-21.989,28.2-43.943,56.294-5.806,7.436-11.657,14.832a2.761,2.761,0,0,1-1.254.927l-2.857-13.728q2.429-6.164,4.27-12.355.486-1.629.993-3.25,1.219-3.868,2.446-7.44c1.85-5.387,3.413-10.928,5.215-16.161q1.854-5.387,3.109-9.5Q286.3,218.2,288.031,213.12Z" transform="translate(-79.792 -71.676)" opacity="0.4" fill="url(#a)"/><circle cx="4.332" cy="4.332" r="4.332" transform="translate(150.701 166.794)" fill="url(#a)"/></g></svg>